<svg width="120" height="120" viewBox="0 0 120 120" fill="none" xmlns="http://www.w3.org/2000/svg">
  <!-- Background Circle -->
  <circle cx="60" cy="60" r="58" fill="#3b82f6" stroke="#ffffff" stroke-width="4"/>
  
  <!-- AI Brain Icon -->
  <g transform="translate(25, 20)">
    <!-- Brain outline -->
    <path d="M35 15c8.837 0 16 7.163 16 16v24c0 8.837-7.163 16-16 16s-16-7.163-16-16V31c0-8.837 7.163-16 16-16z" 
          fill="none" stroke="#ffffff" stroke-width="3" stroke-linecap="round"/>
    
    <!-- Neural network lines -->
    <g stroke="#ffffff" stroke-width="2" stroke-linecap="round">
      <line x1="27" y1="25" x2="43" y2="25"/>
      <line x1="27" y1="35" x2="43" y2="35"/>
      <line x1="27" y1="45" x2="43" y2="45"/>
      <line x1="30" y1="55" x2="40" y2="55"/>
    </g>
    
    <!-- AI nodes -->
    <circle cx="27" cy="25" r="2" fill="#ffffff"/>
    <circle cx="43" cy="25" r="2" fill="#ffffff"/>
    <circle cx="35" cy="35" r="2" fill="#ffffff"/>
    <circle cx="30" cy="45" r="2" fill="#ffffff"/>
    <circle cx="40" cy="45" r="2" fill="#ffffff"/>
  </g>
  
  <!-- Quiz Question Mark -->
  <g transform="translate(40, 65)">
    <circle cx="20" cy="20" r="18" fill="#ffffff"/>
    <path d="M16 12c0-2.2 1.8-4 4-4s4 1.8 4 4c0 2-3 3-3 3" 
          fill="none" stroke="#3b82f6" stroke-width="2.5" stroke-linecap="round"/>
    <circle cx="20" cy="26" r="1.5" fill="#3b82f6"/>
  </g>
  
  <!-- Decorative elements -->
  <circle cx="20" cy="30" r="3" fill="#ffffff" opacity="0.3"/>
  <circle cx="100" cy="25" r="2" fill="#ffffff" opacity="0.4"/>
  <circle cx="95" cy="85" r="2.5" fill="#ffffff" opacity="0.3"/>
  <circle cx="25" cy="95" r="2" fill="#ffffff" opacity="0.4"/>
</svg>